HIERARCHY
ROOT Hips
{
	OFFSET 0.00000 0.00000 0.00000
	CHANNELS 6 Xposition Yposition Zposition Zrotation Yrotation Xrotation 
	JOINT LHipJoint
	{
		OFFSET 0 0 0
		CHANNELS 3 Zrotation Yrotation Xrotation
		JOINT LeftUpLeg
		{
			OFFSET 1.30186 -1.90722 0.65024
			CHANNELS 3 Zrotation Yrotation Xrotation
			JOINT LeftLeg
			{
				OFFSET 2.56413 -7.04489 0.00000
				CHANNELS 3 Zrotation Yrotation Xrotation
				JOINT LeftFoot
				{
					OFFSET 2.79321 -7.67428 0.00000
					CHANNELS 3 Zrotation Yrotation Xrotation
					JOINT LeftToeBase
					{
						OFFSET 0.15723 -0.43198 2.08537
						CHANNELS 3 Zrotation Yrotation Xrotation
						End Site
						{
							OFFSET 0.00000 -0.00000 1.07411
						}
					}
				}
			}
		}
	}
	JOINT RHipJoint
	{
		OFFSET 0 0 0
		CHANNELS 3 Zrotation Yrotation Xrotation
		JOINT RightUpLeg
		{
			OFFSET -1.28627 -1.90723 0.65024
			CHANNELS 3 Zrotation Yrotation Xrotation
			JOINT RightLeg
			{
				OFFSET -2.56567 -7.04913 0.00000
				CHANNELS 3 Zrotation Yrotation Xrotation
				JOINT RightFoot
				{
					OFFSET -2.75597 -7.57198 0.00000
					CHANNELS 3 Zrotation Yrotation Xrotation
					JOINT RightToeBase
					{
						OFFSET -0.17500 -0.48081 2.22901
						CHANNELS 3 Zrotation Yrotation Xrotation
						End Site
						{
							OFFSET -0.00000 -0.00000 1.14762
						}
					}
				}
			}
		}
	}
	JOINT LowerBack
	{
		OFFSET 0 0 0
		CHANNELS 3 Zrotation Yrotation Xrotation
		JOINT Spine
		{
			OFFSET -0.04522 2.07467 -0.16566
			CHANNELS 3 Zrotation Yrotation Xrotation
			JOINT Spine1
			{
				OFFSET -0.01178 2.08825 -0.05393
				CHANNELS 3 Zrotation Yrotation Xrotation
				JOINT Neck
				{
					OFFSET 0 0 0
					CHANNELS 3 Zrotation Yrotation Xrotation
					JOINT Neck1
					{
						OFFSET -0.05182 1.80489 0.16014
						CHANNELS 3 Zrotation Yrotation Xrotation
						JOINT Head
						{
							OFFSET 0.14739 1.78840 -0.33342
							CHANNELS 3 Zrotation Yrotation Xrotation
							End Site
							{
								OFFSET 0.04364 1.83899 -0.13460
							}
						}
					}
				}
				JOINT LeftShoulder
				{
					OFFSET 0 0 0
					CHANNELS 3 Zrotation Yrotation Xrotation
					JOINT LeftArm
					{
						OFFSET 3.01264 1.29090 -0.06579
						CHANNELS 3 Zrotation Yrotation Xrotation
						JOINT LeftForeArm
						{
							OFFSET 5.55680 -0.00000 0.00000
							CHANNELS 3 Zrotation Yrotation Xrotation
							JOINT LeftHand
							{
								OFFSET 3.63979 -0.00000 -0.00000
								CHANNELS 3 Zrotation Yrotation Xrotation
								JOINT LeftFingerBase
								{
									OFFSET 0 0 0
									CHANNELS 3 Zrotation Yrotation Xrotation
									JOINT LeftHandIndex1
									{
										OFFSET 0.56942 -0.00000 -0.00000
										CHANNELS 3 Zrotation Yrotation Xrotation
										End Site
										{
											OFFSET 0.45908 -0.00000 -0.00000
										}
									}
								}
								JOINT LThumb
								{
									OFFSET 0 0 0
									CHANNELS 3 Zrotation Yrotation Xrotation
									End Site
									{
										OFFSET 0.46609 -0.00000 0.46609
									}
								}
							}
						}
					}
				}
				JOINT RightShoulder
				{
					OFFSET 0 0 0
					CHANNELS 3 Zrotation Yrotation Xrotation
					JOINT RightArm
					{
						OFFSET -3.15796 1.37283 -0.36748
						CHANNELS 3 Zrotation Yrotation Xrotation
						JOINT RightForeArm
						{
							OFFSET -5.34339 -0.00000 0.00000
							CHANNELS 3 Zrotation Yrotation Xrotation
							JOINT RightHand
							{
								OFFSET -3.65101 -0.00000 -0.00000
								CHANNELS 3 Zrotation Yrotation Xrotation
								JOINT RightFingerBase
								{
									OFFSET 0 0 0
									CHANNELS 3 Zrotation Yrotation Xrotation
									JOINT RightHandIndex1
									{
										OFFSET -0.69425 -0.00000 -0.00000
										CHANNELS 3 Zrotation Yrotation Xrotation
										End Site
										{
											OFFSET -0.55972 -0.00000 -0.00000
										}
									}
								}
								JOINT RThumb
								{
									OFFSET 0 0 0
									CHANNELS 3 Zrotation Yrotation Xrotation
									End Site
									{
										OFFSET -0.56827 -0.00000 0.56827
									}
								}
							}
						}
					}
				}
			}
		}
	}
}
MOTION
Frames: 15
Frame Time: 0.133333
0.00 0.00 0.00 0 0 0 0 0 0 -21 0 0 0 0 0 0 0 0 0 0 0 0 0 0 21 0 0 0 0 0 0 0 0 0 0 0 0 0 0 0 0 0 0 0 0 0 0 -16 0 0 21 0 0 11 0 0 0 -8 0 0 0 0 0 0 0 0 0 0 0 0 0 0 0 0 0 0 0 0 8 0 0 0 0 0 0 0 0 0 0 0 0 0 0 0 0 0
0.00 0.00 0.00 174.5370 1.9884 -173.8850 0.0000 0.0000 0.0000 -30.9354 -6.0903 -11.7252 1.8021 8.4411 24.0620 0.6022 -3.8341 -13.8579 0.0021 0.2934 0.8062 0.0000 0.0000 0.0000 7.5872 12.6079 -25.9042 -11.1183 -17.9925 63.1650 0.0316 4.8394 -2.1476 -0.0492 -1.4317 3.9374 -7.7013 -0.3192 2.1537 -1.4397 -0.4484 1.1922 2.8378 -0.2051 0.0784 -1.6098 -1.7894 -9.5333 -1.4762 -1.7250 13.5242 -0.3219 -0.9350 5.6551 -0.0000 0.0000 0.0000 -85.5257 -18.2737 40.0523 16.2457 -25.8526 -3.7524 -0.0000 -0.0000 2.8765 24.3051 18.2572 8.0531 -7.1250 0.0000 -0.0000 -3.7661 49.8414 -0.4501 -0.0000 0.0000 0.0000 58.2481 -0.8805 48.9790 -62.9390 57.0435 -36.7971 0.0000 0.0000 8.7389 -15.4943 41.4425 -10.3971 7.1250 -0.0000 -0.0000 10.4163 11.9035 12.5264
0.00 0.00 0.00 174.8620 -0.2578 -172.6090 0.0000 0.0000 0.0000 -31.2001 -5.6282 -8.7556 1.7255 8.2692 23.5349 0.8554 -4.4240 -16.5480 0.2870 -3.4452 -9.5209 0.0000 0.0000 0.0000 6.2948 15.0762 -31.0978 -7.2892 -15.5707 49.9599 -0.2695 -1.4897 -10.4666 -0.0518 -1.4693 4.0411 -7.8529 -0.6849 2.4797 -0.4922 -1.1617 1.4379 3.9180 -0.6662 0.2383 -2.0296 -2.1270 -12.4372 0.0892 -2.3934 13.4470 0.1522 -1.2088 6.1504 -0.0000 -0.0000 0.0000 -87.5933 -23.8411 48.7165 21.4510 -32.3510 -6.2895 -0.0000 0.0000 -1.4289 25.9124 20.3723 9.5996 -7.1250 0.0000 -0.0000 -2.6654 52.3939 -0.4854 -0.0000 -0.0000 0.0000 56.0931 1.2051 47.5144 -66.9538 57.8948 -40.1825 0.0000 0.0000 0.9145 -1.9252 40.7688 -1.2575 7.1250 -0.0000 -0.0000 17.0733 9.2427 20.4484
0.00 0.00 0.00 174.7310 -1.9005 -172.0990 0.0000 0.0000 0.0000 -31.3151 -3.6792 -4.6120 1.2496 7.0874 19.9746 0.7403 -3.7989 -15.4147 0.2961 -3.4991 -9.6715 0.0000 0.0000 0.0000 4.8470 17.8383 -29.5521 -3.2737 -11.1254 32.7041 0.0186 -9.1837 -12.7494 -0.2076 -2.9338 8.0944 -8.3608 -0.7028 2.4931 -0.3270 -1.1910 2.3974 4.3623 -0.7723 1.2460 -1.9710 -2.5758 -15.8336 1.6448 -3.2746 13.2404 0.5152 -1.5189 6.6960 -0.0000 -0.0000 0.0000 -87.7654 -27.9689 53.8859 25.5820 -36.7930 -8.6361 -0.0000 0.0000 -2.8642 24.0712 17.6268 7.7039 -7.1250 0.0000 -0.0000 -3.8515 49.1290 -0.3927 -0.0000 -0.0000 0.0000 56.0844 2.9932 45.5582 -64.5034 57.3952 -38.1124 0.0000 0.0000 3.1534 -8.6645 39.3382 -5.5175 7.1250 -0.0000 -0.0000 13.5844 8.7059 15.9041
0.00 0.00 0.00 173.7980 -3.3918 -171.4230 0.0000 0.0000 0.0000 -31.4472 0.8026 1.1084 0.5461 4.7345 13.1528 0.3763 -4.5637 -10.9227 0.7448 -5.5126 -15.3766 0.0000 0.0000 0.0000 1.4398 23.1180 -26.0204 -0.7527 -5.5413 15.4592 0.3930 -15.0534 -16.4691 -0.0261 -1.0434 2.8681 -8.9528 -0.9892 1.5247 -0.7967 -1.5059 1.2992 4.2015 -0.8633 0.6967 -2.8074 -3.0364 -12.0449 3.6225 -4.2352 12.1997 1.2338 -1.9618 5.8037 0.0000 0.0000 0.0000 -87.6673 -25.4675 55.9918 29.9613 -40.8602 -11.3843 -0.0000 0.0000 -2.8563 23.4816 13.7468 5.8940 -7.1250 0.0000 -0.0000 -3.6573 44.8832 0.0106 0.0000 0.0000 0.0000 56.9977 0.5475 45.5788 -62.8687 57.0271 -36.7381 0.0000 0.0000 5.5171 -2.4884 41.7656 -1.6581 7.1250 -0.0000 -0.0000 16.8648 10.2526 20.4187
0.00 0.00 0.00 176.5420 -4.9277 -173.2870 0.0000 0.0000 0.0000 -25.3094 1.9327 6.5285 2.0286 8.9255 25.5624 -0.0050 -1.6488 -0.5368 1.8017 -8.4403 -24.0596 0.0000 0.0000 0.0000 11.8490 19.8010 -21.8834 -1.5332 -7.8174 22.1609 0.2497 -8.8856 -4.4198 -0.2401 -3.1535 8.7063 -6.4622 -1.0406 1.1915 0.2754 -1.4656 1.2653 3.9123 -0.8047 0.8058 -2.2392 -3.5121 -14.2894 2.6619 -4.7473 12.2825 0.7586 -2.2126 6.1879 -0.0000 0.0000 0.0000 -86.8779 -12.1587 47.7707 27.3955 -38.5538 -9.7446 -0.0000 0.0000 -3.1910 28.0347 15.2889 7.9926 -7.1250 0.0000 -0.0000 0.3971 47.1871 0.0214 -0.0000 0.0000 0.0000 58.7756 0.3135 44.6675 -59.5129 56.1787 -33.9361 0.0000 0.0000 9.1484 -8.5653 40.4191 -5.5776 7.1250 -0.0000 -0.0000 13.7456 9.7339 16.3074
0.00 0.00 0.00 178.2710 -4.5374 -174.3850 0.0000 0.0000 0.0000 -22.1791 0.5726 -1.3536 5.2840 13.6966 42.0355 0.6591 4.9293 14.4609 1.4228 -7.5432 -21.3349 0.0000 0.0000 0.0000 16.4563 16.7691 -19.1971 -2.0513 -8.9722 25.7083 -0.0227 -3.9471 -6.5045 -0.5332 -4.6790 12.9953 -5.0189 -0.7855 1.9958 0.9783 -1.1560 1.3519 3.8412 -0.6305 0.3912 -1.6010 -3.2123 -14.2177 2.1081 -4.3077 10.4985 0.5392 -2.0134 5.5731 -0.0000 0.0000 0.0000 -87.2111 -5.0243 38.0881 21.9773 -32.9514 -6.5735 -0.0000 0.0000 -2.5023 25.9711 15.1273 7.2445 -7.1250 0.0000 -0.0000 -1.5510 46.7097 -0.0655 -0.0000 0.0000 0.0000 59.1289 -0.6078 44.0189 -59.4969 56.1744 -33.9228 0.0000 0.0000 10.4717 -9.6904 40.2759 -6.2994 7.1250 -0.0000 -0.0000 13.1645 9.7642 15.5878
0.00 0.00 0.00 181.2590 -4.4642 -175.5620 0.0000 0.0000 0.0000 -17.4787 -2.5526 -10.2218 9.5511 17.1495 57.9771 0.3786 5.1303 10.9948 0.6190 -5.0350 -14.0083 0.0000 0.0000 0.0000 21.9900 14.4406 -14.3993 -2.0850 -9.0408 25.9232 -0.2395 -1.6296 -9.9890 -0.7599 -5.5672 15.5337 -2.2709 -0.5220 2.9236 1.8421 -0.8112 1.5941 3.1891 -0.4547 0.0544 -1.5323 -3.1621 -14.3736 2.1339 -4.2248 9.5575 0.5493 -1.9707 5.3005 -0.0000 0.0000 0.0000 -86.2725 0.2415 27.6709 16.0086 -25.5322 -3.6496 -0.0000 -0.0000 0.7242 20.0802 32.3562 11.0694 -7.1250 0.0000 -0.0000 -14.8907 63.3824 -6.7166 -0.0000 0.0000 0.0000 59.0751 -0.6003 43.4871 -58.9593 56.0262 -33.4766 0.0000 0.0000 10.6805 -10.6890 39.6088 -6.8618 7.1250 -0.0000 -0.0000 12.5828 9.2749 14.7783
0.00 0.00 0.00 181.3750 -1.9454 -175.5910 0.0000 0.0000 0.0000 -15.4713 -5.1572 -24.4143 11.6485 18.2381 64.8701 0.0118 2.1203 -3.8213 0.5879 -4.9091 -13.6493 0.0000 0.0000 0.0000 24.6523 12.8744 -7.3809 -2.0112 -8.8894 25.4500 -0.5180 -0.9681 -13.9802 -0.1921 -2.8224 7.7848 -1.5486 0.6620 2.9659 0.4784 0.8014 1.4778 1.3335 0.3736 -0.1762 -2.6145 -3.9185 -13.7091 3.8157 -5.2510 8.9576 1.1713 -2.4116 5.0994 -0.0000 -0.0000 0.0000 -81.3006 9.1968 0.9477 8.9649 -15.1044 -1.1909 -0.0000 -0.0000 18.0226 26.1175 22.0488 10.4284 -7.1250 0.0000 -0.0000 -2.9036 54.2353 -0.6595 -0.0000 -0.0000 0.0000 60.5166 -2.3669 42.6742 -61.4994 56.6964 -35.5915 0.0000 0.0000 11.6007 -12.4289 39.2015 -7.9303 7.1250 -0.0000 -0.0000 11.6446 9.1651 13.6125
0.00 0.00 0.00 182.7360 0.6695 -174.6660 0.0000 0.0000 0.0000 -12.7934 -7.7413 -31.2280 7.5699 15.7936 50.9984 0.3273 0.8466 -11.1466 0.5127 -4.5897 -12.7419 0.0000 0.0000 0.0000 26.9507 10.4467 -2.9780 -1.7797 -8.3913 23.9091 -0.6834 0.4499 -15.4743 -0.0986 -2.0251 5.5751 -0.0334 1.5134 3.3562 0.0986 2.0765 1.7155 0.0491 1.0631 -0.1269 -3.9775 -4.0226 -14.4964 4.3462 -5.1156 7.0593 1.5666 -2.3642 4.6808 0.0000 -0.0000 0.0000 -78.5474 16.8166 -11.7660 8.2100 -13.8927 -1.0020 -0.0000 -0.0000 19.1277 24.7352 20.2993 9.0806 -7.1250 0.0000 -0.0000 -3.8458 52.0990 -0.6730 0.0000 -0.0000 0.0000 61.2914 -2.9682 40.8998 -65.8191 57.6710 -39.2224 0.0000 0.0000 11.4590 -32.2759 28.8123 -16.9295 7.1250 -0.0000 -0.0000 -0.9112 3.0626 -0.9587
0.00 0.00 0.00 184.3940 4.1938 -172.6410 0.0000 0.0000 0.0000 -8.5220 -13.9564 -28.0216 0.7447 5.5123 15.3757 0.0909 8.9748 -14.3265 0.4443 -4.2767 -11.8565 0.0000 0.0000 0.0000 27.2731 5.9601 6.6196 -0.5298 -4.6641 12.9531 -0.2656 4.2836 -9.2016 -0.0126 0.7240 -1.9898 1.1563 2.3128 2.9815 -0.2973 3.1870 2.1190 -1.0254 1.6406 0.5823 -3.5982 -3.4219 -15.1680 3.6847 -4.2937 5.7118 1.3701 -2.0080 4.3111 0.0000 -0.0000 0.0000 -77.4252 25.2046 -8.3733 10.2566 -17.1399 -1.5497 -0.0000 -0.0000 11.4544 20.4616 20.3626 7.3974 -7.1250 0.0000 -0.0000 -8.1442 51.4117 -1.2934 0.0000 -0.0000 0.0000 62.6830 -3.7629 38.4461 -69.0466 58.2743 -41.9589 0.0000 0.0000 10.5825 -15.1084 39.6983 -9.7843 7.1250 -0.0000 -0.0000 10.3414 10.1292 12.1811
0.00 0.00 0.00 181.0700 5.2538 -173.6170 0.0000 0.0000 0.0000 -17.6592 -12.8226 -25.2332 1.7852 8.4035 23.9466 -0.1193 8.0494 -8.5180 0.0265 -1.0506 -2.8881 0.0000 0.0000 0.0000 20.6243 4.9565 12.8502 -1.7092 -8.2322 23.4216 -0.0160 5.2850 8.0260 -0.0579 1.5531 -4.2720 -2.4816 1.0775 1.7270 -1.0932 1.4996 1.9821 0.2583 0.7593 1.0308 -4.2698 -2.2015 -14.2543 0.7924 -2.1687 11.9152 0.7446 -1.1713 6.0045 -0.0000 0.0000 0.0000 -78.2382 18.6623 -12.4825 9.0656 -15.2650 -1.2173 -0.0000 -0.0000 17.6098 23.3827 19.6749 8.2826 -7.1250 0.0000 -0.0000 -5.0371 51.1952 -0.7704 -0.0000 0.0000 0.0000 64.1624 -5.7275 37.4882 -66.2613 57.7598 -39.5963 0.0000 0.0000 10.4750 -8.4707 40.7992 -5.5580 7.1250 -0.0000 -0.0000 13.8333 10.0863 16.4863
0.00 0.00 0.00 178.8820 5.7620 -174.6760 0.0000 0.0000 0.0000 -21.9190 -11.1400 -22.0816 2.0439 8.9570 25.6608 0.0771 5.4934 -9.8309 0.0067 -0.5295 -1.4550 0.0000 0.0000 0.0000 17.1640 8.6883 4.9368 -4.7643 -13.1133 39.7942 -1.3308 2.1087 22.6448 -0.1393 -2.4052 6.6269 -4.1470 0.9292 2.0841 -1.6549 1.3106 2.0045 0.6080 0.6676 0.8399 -2.6645 -1.7484 -14.5743 -1.5599 -1.4189 13.7869 -0.2023 -0.9163 6.6101 -0.0000 -0.0000 0.0000 -78.1703 13.5055 -6.5596 9.4305 -15.8438 -1.3152 -0.0000 -0.0000 14.9392 21.6413 20.3890 7.8701 -7.1250 0.0000 -0.0000 -6.9816 51.6428 -1.1468 -0.0000 -0.0000 0.0000 65.1758 -5.1116 37.6836 -63.1298 57.0878 -36.9572 0.0000 0.0000 12.0665 -9.9753 38.8700 -6.2986 7.1250 -0.0000 -0.0000 12.8657 8.4483 14.9715
0.00 0.00 0.00 184.5960 4.2040 -173.3450 0.0000 0.0000 0.0000 -10.9524 -8.2065 -32.3501 4.1155 12.3125 36.8465 0.2972 3.3493 -12.0880 0.6029 -4.9702 -13.8237 0.0000 0.0000 0.0000 28.1225 8.2445 0.0321 -1.2719 -7.1480 20.1546 -0.5403 -0.5293 -14.0881 -0.1092 -2.1309 5.8676 1.8898 1.0594 3.0160 0.7321 1.5370 2.0191 -0.3481 0.8165 0.4081 -1.3373 -3.2797 -14.5630 -1.0965 -3.3458 21.7985 -0.5206 -1.5500 9.2670 -0.0000 -0.0000 0.0000 -87.9060 15.0808 -33.0478 5.3339 -9.1467 -0.4270 -0.0000 -0.0000 48.9343 15.5383 22.5811 6.0942 -7.1250 0.0000 -0.0000 -13.8597 52.7958 -2.7003 -0.0000 -0.0000 0.0000 63.9366 -6.1794 37.9262 -73.7787 58.9820 -45.9999 0.0000 0.0000 7.3197 -9.3721 39.8837 -6.0413 7.1250 -0.0000 -0.0000 13.2820 9.3371 15.6529
0.00 0.00 0.00 176.8840 7.9570 -175.5520 0.0000 0.0000 0.0000 -26.0405 -6.4657 -19.1958 2.0223 8.9124 25.5218 0.3230 5.4747 -14.1458 0.0182 0.8719 2.3965 0.0000 0.0000 0.0000 13.3123 9.7650 -3.6291 -8.4382 -16.4323 54.1262 -1.5977 0.2054 23.9927 -0.3313 -3.6992 10.2318 -6.8904 0.2667 2.4734 -1.8619 0.3845 1.8378 1.9345 0.2037 0.4851 0.0001 -1.0632 -12.5899 -6.6452 1.9325 26.2183 -2.0231 0.6907 10.5526 0.0000 -0.0000 0.0000 -81.4987 6.2732 -3.6456 7.6118 -12.9217 -0.8632 -0.0000 -0.0000 22.3648 23.4086 19.4597 8.2068 -7.1250 0.0000 -0.0000 -4.9530 50.9717 -0.7303 0.0000 -0.0000 0.0000 64.8712 -2.5220 39.4932 -64.8880 57.4777 -38.4365 0.0000 0.0000 12.0154 -9.0951 41.8430 -6.0956 7.1250 -0.0000 -0.0000 13.6413 11.1840 16.4527
